<?xml version="1.0" encoding="UTF-8" standalone="no"?>
<!-- Created with Inkscape (http://www.inkscape.org/) -->

<svg
   xmlns:dc="http://purl.org/dc/elements/1.1/"
   xmlns:cc="http://creativecommons.org/ns#"
   xmlns:rdf="http://www.w3.org/1999/02/22-rdf-syntax-ns#"
   xmlns:svg="http://www.w3.org/2000/svg"
   xmlns="http://www.w3.org/2000/svg"
   xmlns:xlink="http://www.w3.org/1999/xlink"
   xmlns:sodipodi="http://sodipodi.sourceforge.net/DTD/sodipodi-0.dtd"
   xmlns:inkscape="http://www.inkscape.org/namespaces/inkscape"
   width="1052.3622"
   height="744.09448"
   id="svg2"
   version="1.1"
   inkscape:version="0.48.4 r9939"
   sodipodi:docname="Inks.svg">
  <defs
     id="defs4">
    <clipPath
       clipPathUnits="userSpaceOnUse"
       id="clipPath3822">
      <rect
         style="opacity:0.23008848;fill:#000000;fill-opacity:1;stroke:none"
         id="rect3824"
         width="1381.4286"
         height="354.28571"
         x="115.71423"
         y="-477.1004" />
    </clipPath>
    <clipPath
       clipPathUnits="userSpaceOnUse"
       id="clipPath3828">
      <rect
         style="opacity:0.23008848;fill:#000000;fill-opacity:1;stroke:none"
         id="rect3830"
         width="1230.2554"
         height="310.02435"
         x="208.26808"
         y="112.61"
         transform="scale(1,-1)" />
    </clipPath>
    <clipPath
       clipPathUnits="userSpaceOnUse"
       id="clipPath3865">
      <rect
         style="fill:none;stroke:#000000;stroke-width:4.0999999;stroke-linecap:round;stroke-linejoin:miter;stroke-miterlimit:4;stroke-opacity:1;stroke-dasharray:none;stroke-dashoffset:0"
         id="rect3867"
         width="1614.2858"
         height="817.14288"
         x="-117.14286"
         y="1732.3622" />
    </clipPath>
  </defs>
  <sodipodi:namedview
     id="base"
     pagecolor="#ffffff"
     bordercolor="#666666"
     borderopacity="1.0"
     inkscape:pageopacity="0.0"
     inkscape:pageshadow="2"
     inkscape:zoom="0.35"
     inkscape:cx="62.900652"
     inkscape:cy="-719.46354"
     inkscape:document-units="px"
     inkscape:current-layer="layer1"
     showgrid="false"
     inkscape:window-width="1360"
     inkscape:window-height="746"
     inkscape:window-x="-8"
     inkscape:window-y="66"
     inkscape:window-maximized="1" />
  <metadata
     id="metadata7">
    <rdf:RDF>
      <cc:Work
         rdf:about="">
        <dc:format>image/svg+xml</dc:format>
        <dc:type
           rdf:resource="http://purl.org/dc/dcmitype/StillImage" />
        <dc:title></dc:title>
      </cc:Work>
    </rdf:RDF>
  </metadata>
  <g
     inkscape:label="Layer 1"
     inkscape:groupmode="layer"
     id="layer1"
     transform="translate(0,-308.2677)">
    <g
       id="g3798"
       inkscape:export-filename="C:\Users\Andrew\Google Drive\CPP\Third Year\Winter 2018\CS 480\Project\images\favicon.png"
       inkscape:export-xdpi="90"
       inkscape:export-ydpi="90"
       transform="translate(-291.93321,-108.24222)">
      <rect
         y="437.70502"
         x="170.99995"
         height="63.65723"
         width="63.65723"
         id="rect3753"
         style="fill:none;stroke:#000000;stroke-width:0.34276971;stroke-miterlimit:4;stroke-opacity:1;stroke-dasharray:none" />
      <path
         transform="translate(0,18.035714)"
         sodipodi:type="arc"
         style="fill:#000000;fill-opacity:1;stroke:none"
         id="path3765"
         sodipodi:cx="181.69643"
         sodipodi:cy="458.34433"
         sodipodi:rx="2.4107144"
         sodipodi:ry="2.4107144"
         d="m 184.10714,458.34433 c 0,1.3314 -1.07931,2.41071 -2.41071,2.41071 -1.3314,0 -2.41072,-1.07931 -2.41072,-2.41071 0,-1.3314 1.07932,-2.41071 2.41072,-2.41071 1.3314,0 2.41071,1.07931 2.41071,2.41071 z" />
      <g
         transform="translate(0.50714302,-1.0428403)"
         id="g3771">
        <path
           sodipodi:type="arc"
           style="fill:#000000;fill-opacity:1;stroke:none"
           id="path3763"
           sodipodi:cx="181.69643"
           sodipodi:cy="458.34433"
           sodipodi:rx="2.4107144"
           sodipodi:ry="2.4107144"
           d="m 184.10714,458.34433 c 0,1.3314 -1.07931,2.41071 -2.41071,2.41071 -1.3314,0 -2.41072,-1.07931 -2.41072,-2.41071 0,-1.3314 1.07932,-2.41071 2.41072,-2.41071 1.3314,0 2.41071,1.07931 2.41071,2.41071 z"
           transform="translate(0,6.4285714)" />
        <path
           transform="translate(41.25,6.4285714)"
           d="m 184.10714,458.34433 c 0,1.3314 -1.07931,2.41071 -2.41071,2.41071 -1.3314,0 -2.41072,-1.07931 -2.41072,-2.41071 0,-1.3314 1.07932,-2.41071 2.41072,-2.41071 1.3314,0 2.41071,1.07931 2.41071,2.41071 z"
           sodipodi:ry="2.4107144"
           sodipodi:rx="2.4107144"
           sodipodi:cy="458.34433"
           sodipodi:cx="181.69643"
           id="path3767"
           style="fill:#000000;fill-opacity:1;stroke:none"
           sodipodi:type="arc" />
        <path
           transform="translate(41.25,18.035714)"
           sodipodi:type="arc"
           style="fill:#000000;fill-opacity:1;stroke:none"
           id="path3769"
           sodipodi:cx="181.69643"
           sodipodi:cy="458.34433"
           sodipodi:rx="2.4107144"
           sodipodi:ry="2.4107144"
           d="m 184.10714,458.34433 c 0,1.3314 -1.07931,2.41071 -2.41071,2.41071 -1.3314,0 -2.41072,-1.07931 -2.41072,-2.41071 0,-1.3314 1.07932,-2.41071 2.41072,-2.41071 1.3314,0 2.41071,1.07931 2.41071,2.41071 z" />
      </g>
      <path
         inkscape:connector-curvature="0"
         d="m 196.88277,464.28691 c -0.0458,0.011 -0.17934,0.0122 -0.13731,0.0336 0.0276,0.0139 1.08194,-0.14303 1.20257,-0.15999 0.81052,-0.13869 1.59744,-0.38126 2.37449,-0.64534 1.00392,-0.35458 1.96356,-0.82007 2.89497,-1.33293 0.886,-0.5 1.68603,-1.1267 2.44323,-1.80186 0.71927,-0.65544 1.33686,-1.40857 1.92357,-2.18183 0.48743,-0.65264 0.84785,-1.37675 1.15664,-2.1265 0.22938,-0.57665 0.37047,-1.17841 0.41578,-1.79646 0.0182,-0.30038 -0.044,-0.5846 -0.19823,-0.84171 -0.14333,-0.2606 -0.34761,-0.45601 -0.58964,-0.62254 -0.22894,-0.12631 -0.48463,-0.16174 -0.74272,-0.14487 -0.72874,0.0927 -1.39602,0.42178 -2.04408,0.74812 -1.09595,0.60171 -2.00585,1.457 -2.86407,2.35304 -1.10905,1.18479 -1.95191,2.56858 -2.72537,3.98553 -0.90203,1.71429 -1.59306,3.52656 -2.24189,5.3483 -0.69171,1.88978 -1.13034,3.85187 -1.44367,5.83545 -0.28575,1.89615 -0.30887,3.81133 -0.20773,5.72165 0.0874,1.66822 0.43948,3.30062 0.94422,4.88802 0.45087,1.28271 1.06347,2.30074 2.01641,3.26406 1.03557,0.89425 2.32909,1.27413 3.63309,1.57861 1.53128,0.31321 3.09583,0.30514 4.65018,0.26494 0.90356,-0.027 1.80474,-0.0952 2.70407,-0.18372 3.35014,-0.26798 3.72911,4.46983 0.37897,4.73781 l 0,0 c -1.01172,0.065 -2.0246,0.10956 -3.03874,0.10724 -1.92415,-0.01 -3.85803,-0.0676 -5.74647,-0.4752 -2.28794,-0.54557 -4.1702,-1.20003 -5.94376,-2.82429 -0.62664,-0.67174 -0.82434,-0.83738 -1.35553,-1.59359 -0.75879,-1.08025 -1.2991,-2.29839 -1.7202,-3.54411 -0.56503,-1.96117 -0.95493,-3.96646 -1.03741,-6.01132 -0.0897,-2.22218 -0.0349,-4.44913 0.30797,-6.65114 0.37637,-2.23969 0.85614,-4.46032 1.62869,-6.60176 0.71099,-2.04597 1.49034,-4.07201 2.46995,-6.00673 0.94543,-1.78987 1.98886,-3.5341 3.35291,-5.04265 1.20825,-1.28174 2.48797,-2.51183 4.03355,-3.38427 1.3356,-0.71179 2.72511,-1.35297 4.26316,-1.42882 0.25197,0.004 0.50458,-0.007 0.75591,0.011 1.08019,0.0789 2.1062,0.48301 2.98933,1.09861 0.89306,0.70019 1.66175,1.51674 2.13434,2.56427 0.45004,1.08587 0.6921,2.21405 0.55126,3.39583 -0.14184,1.1002 -0.39039,2.17871 -0.83622,3.19964 -0.49527,1.10336 -1.07219,2.16552 -1.81251,3.12682 -0.7877,1.0151 -1.62338,1.99659 -2.5858,2.85228 -1.03378,0.89623 -2.1204,1.73287 -3.32106,2.39682 -1.1534,0.62408 -2.33065,1.20815 -3.55799,1.67422 -0.9785,0.36641 -1.96569,0.71549 -2.97775,0.97852 -0.45674,0.11834 -0.90973,0.24336 -1.36428,0.36706 -3.62731,0.51819 -4.36014,-4.61159 -0.73283,-5.12978 z"
         id="path3796"
         style="fill:#000000;fill-opacity:1;stroke:none" />
    </g>
    <rect
       style="fill:#000000;fill-opacity:1;stroke:none"
       id="rect3832"
       width="5468.3364"
       height="252.71356"
       x="-1102.8325"
       y="1125.5066"
       inkscape:export-filename="C:\Users\Andrew\Google Drive\CPP\Third Year\Winter 2018\CS 480\Project\images\gruber_header.png"
       inkscape:export-xdpi="90"
       inkscape:export-ydpi="90" />
    <g
       id="g3842"
       transform="translate(1049.7093,440.59323)">
      <text
         sodipodi:linespacing="125%"
         id="text3834"
         y="912.97858"
         x="59.107838"
         style="font-size:238.70578003px;font-style:normal;font-variant:normal;font-weight:normal;font-stretch:normal;line-height:125%;letter-spacing:0px;word-spacing:0px;fill:#ff0000;fill-opacity:1;stroke:none;font-family:Arial;-inkscape-font-specification:Arial"
         xml:space="preserve"><tspan
           y="912.97858"
           x="59.107838"
           id="tspan3836"
           sodipodi:role="line"
           style="font-weight:bold">GRUBER</tspan></text>
      <rect
         y="706.64783"
         x="466.87039"
         height="20.013018"
         width="20.013018"
         id="rect3838"
         style="fill:#ff0000;fill-opacity:1;stroke:none" />
      <rect
         style="fill:#ff0000;fill-opacity:1;stroke:none"
         id="rect3840"
         width="20.013018"
         height="20.013018"
         x="521.19141"
         y="706.64783" />
    </g>
    <image
       y="422.36218"
       x="-719.07147"
       id="image3010"
       xlink:href="file:///C:/Users/Andrew/Google%20Drive/CPP/Third%20Year/Winter%202018/CS%20480/Project/images/palette.png"
       height="294.28571"
       width="690.55664" />
    <path
       style="fill:#243010;fill-opacity:1;stroke:none"
       d="m -1881.4381,78.826414 0,-125.71429 2731.42861,0 2731.42849,0 0,125.71429 0,125.714256 -2731.42849,0 -2731.42861,0 0,-125.714256 z M 478.19381,171.64747 c 20.0326,-9.7998 20.3959,-10.5992 22.0578,-48.53535 l 1.6896,-38.571416 -40.2611,0 -40.2611,0 0,17.142846 c 0,15.78232 1.5874,17.14286 20,17.14286 26.6204,0 26.7771,14.89436 0.2732,25.96836 -39.1646,16.364 -69.7481,-11.50643 -64.4273,-58.711936 4.9799,-44.18175 47.1283,-64.21425 71.0693,-33.77819 8.3251,10.58359 14.5503,12.89875 28.9862,10.78 12.6721,-1.85985 18.3844,-5.80561 18.3844,-12.69901 0,-15.2614 -27.4861,-39.40917 -49.5739,-43.5528505 -64.316,-12.06577 -110.4376,24.4515605 -110.4173,87.4241405 0.011,38.789456 14.699,64.704846 45.7054,80.651346 29.2611,15.0488 61.5724,13.9601 96.7748,-3.2608 l 0,0 z m 321.7875,9.7382 c 32.5315,-9.0345 38.5806,-25.9664 38.5806,-107.989766 l 0,-68.8552005 -20,0 -20,0 0,68.7128605 c 0,68.035806 -0.1406,68.766406 -14.2857,74.144306 -8.5959,3.2681 -19.641,3.3953 -27.7316,0.3193 -15.5665,-5.9184 -20.8398,-31.59653 -20.8398,-101.478926 l 0,-42.4216405 -18.5715,1.79062 -18.5714,1.79062 0.9295,70.2413805 c 1.048,79.191146 6.5894,94.397146 37.6716,103.373246 25.2155,7.282 37.6745,7.356 62.8183,0.3731 l 0,1e-4 z m -235.7051,-33.9878 c 0,-30.05294 1.3606,-34.28575 11.0204,-34.28575 13.0752,0 23.0102,9.26467 46.4172,43.28555 15.6212,22.7047 19.7024,25.2859 39.9798,25.2859 12.4204,0 22.5826,-1.5701 22.5826,-3.4892 0,-1.919 -11.1776,-19.4788 -24.8391,-39.0218 -23.9767,-34.29891 -24.4239,-35.71541 -12.8825,-40.796536 16.675,-7.34118 27.914,-33.44632 23.3487,-54.23245 -5.9781,-27.21794 -24.6944,-35.3075305 -88.834,-38.3960705 l -56.7931,-2.73478 0,89.3354105 0,89.335426 20,0 20,0 0,-34.2857 z m 437.96709,20.7405 c 20.2958,-17.4578 21.6497,-48.4308 2.9854,-68.298056 -11.31089,-12.03989 -11.76569,-14.41101 -4,-20.85592 9.9835,-8.28561 11.5621,-35.67679 2.9802,-51.71219 C 996.41891,12.716364 964.30681,4.6110535 914.27621,4.5725635 l -41.4286,-0.0319 0,88.5714205 0,88.571446 56.8242,0 c 51.5457,0 58.287,-1.2583 72.57149,-13.5452 z m 179.1757,-3.5977 0,-17.1428 -48.5714,0 -48.5714,0 0,-20.00003 0,-20 42.8571,0 42.8572,0 0,-17.142856 0,-17.14286 -42.8572,0 -42.8571,0 0,-17.14285 0,-17.14286 45.7143,0 45.7142,0 0,-17.14286 0,-17.1428505 -65.7142,0 -65.7143,0 0,88.5714205 0,88.571446 68.5714,0 68.5714,0 0,-17.1429 z m 62.8572,-17.5403 c 0,-32.64802 0.7504,-34.57597 12.7899,-32.85711 8.0517,1.14954 21.1459,13.99833 35.3456,34.68311 20.8108,30.3155 24.2418,32.8572 44.3529,32.8572 11.9885,0 21.7877,-1.9286 21.7759,-4.2857 -0.034,-6.6432 -22.6538,-42.7478 -36.2928,-57.92676 -9.4622,-10.53044 -10.4656,-14.27665 -4.4001,-16.42857 30.3359,-10.762596 38.8014,-52.516196 16.0178,-79.003686 C 1321.4443,9.5984635 1316.8855,8.4352535 1262.4369,5.8133635 l -58.1607,-2.80063 0,89.3354105 0,89.335426 20,0 20,0 0,-34.6832 z M 757.53081,-16.887876 c 1.4871,-10.47131 -0.8987,-12.85714 -12.8572,-12.85714 -11.9584,0 -14.6831,2.72467 -14.6831,14.68315 0,11.9584795 2.3858,14.34430953 12.8571,12.8571395 8.2626,-1.17348 13.5097,-6.42053 14.6832,-14.6831495 z m 52.4597,1.42858 c 0,-10.47619 -3.0476,-14.28572 -11.4286,-14.28572 -8.381,0 -11.4286,3.80953 -11.4286,14.28572 0,10.4761895 3.0476,14.2857095 11.4286,14.2857095 8.381,0 11.4286,-3.80952 11.4286,-14.2857095 z"
       id="path3017"
       inkscape:connector-curvature="0"
       inkscape:export-filename="C:\Users\Andrew\Google Drive\CPP\Third Year\Winter 2018\CS 480\Project\images\gruber_header.png"
       inkscape:export-xdpi="90"
       inkscape:export-ydpi="90" />
    <path
       style="fill:#f6f7eb;fill-opacity:1;stroke:none"
       d="m -884.44269,1356.8197 c -34.47321,-7.5722 -58.53516,-29.4198 -66.90207,-60.7451 -2.02814,-7.5932 -2.28548,-10.8644 -2.22509,-28.2842 0.0641,-18.4771 0.23937,-20.2576 2.82864,-28.7271 11.07303,-36.2199 37.61896,-57.1375 75.89614,-59.8045 9.80062,-0.6829 26.44315,0.8464 34.01706,3.1258 22.85677,6.8789 47.7816,31.3507 44.66307,43.8513 -1.1315,4.5356 -5.63163,7.6955 -13.19575,9.2658 -7.69717,1.5979 -18.49493,1.6174 -21.54391,0.039 -1.38896,-0.7191 -6.6165,-5.3299 -11.61675,-10.2463 -10.25103,-10.079 -15.68887,-13.0541 -25.26495,-13.8228 -15.64214,-1.2556 -31.45737,9.2534 -39.90966,26.5195 -8.98111,18.3463 -9.13139,44.3243 -0.35911,62.0738 8.60773,17.4165 24.28149,25.5741 44.32051,23.0672 12.50375,-1.5643 29.60513,-10.378 33.23022,-17.1261 4.51353,-8.402 -1.38956,-12.6669 -18.82241,-13.5987 -12.12559,-0.6482 -15.9611,-1.615 -17.74615,-4.4733 -0.79591,-1.2745 -1.54032,-7.3604 -1.91546,-15.6597 l -0.61361,-13.5751 40.16183,0 40.16182,0 -0.65884,14.8997 c -1.23269,27.8772 -2.61431,47.2135 -3.7352,52.2754 -2.14494,9.6866 -6.90059,13.7356 -25.77445,21.9446 -15.79479,6.8698 -28.23714,9.8289 -43.78267,10.4128 -9.93698,0.3732 -14.45606,0.072 -21.21321,-1.4118 l 0,0 z"
       id="path3004"
       inkscape:connector-curvature="0" />
    <path
       style="fill:#f6f7eb;fill-opacity:1;stroke:none"
       d="m -766.25484,1266.2751 0,-88.3883 5.97899,0 c 12.27021,0 66.72343,3.1216 79.54362,4.5599 37.96286,4.2592 51.83057,11.8261 57.94323,31.6166 6.63341,21.4765 -3.19302,47.077 -22.15623,57.723 -6.90815,3.8782 -8.15582,6.2101 -6.11495,11.4285 0.70195,1.7949 10.75396,17.4798 22.33778,34.8554 11.58384,17.3757 21.06151,32.2541 21.06151,33.0633 0,2.3715 -4.58246,3.0249 -21.2132,3.0249 -22.45966,0 -21.68206,0.5445 -44.97723,-31.4918 -20.2951,-27.9104 -29.14273,-35.6833 -40.61697,-35.6833 -6.68775,0 -8.0693,0.6014 -10.14342,4.4155 -1.48341,2.7279 -1.76719,7.2751 -2.07276,33.2126 l -0.35403,30.0521 -19.60817,0 -19.60817,0 0,-88.3884 z"
       id="path3006"
       inkscape:connector-curvature="0" />
    <path
       style="fill:#f6f7eb;fill-opacity:1;stroke:none"
       d="m -533.91975,1359.0615 c -40.75259,-8.1507 -49.30318,-16.564 -54.08661,-53.2182 -1.70621,-13.0743 -3.4154,-62.6065 -3.46273,-100.3496 l -0.0294,-23.4058 2.77792,-0.538 c 1.52786,-0.2959 8.68731,-1.0307 15.9099,-1.6329 7.2226,-0.6022 14.15477,-1.314 15.40483,-1.5818 l 2.27284,-0.4869 0.009,40.1728 c 0.0124,57.424 2.19119,78.4579 9.66743,93.3268 4.54473,9.0386 11.2129,12.4782 24.16404,12.4641 9.34403,-0.01 18.195,-2.3595 22.48344,-5.9679 6.25793,-5.2657 7.21085,-16.8212 7.27233,-88.187 l 0.0437,-50.7602 19.2922,0 19.29221,0 -0.47954,59.8516 c -0.49865,62.2381 -1.06901,71.3707 -5.34652,85.6104 -5.71823,19.0358 -14.05309,25.7065 -40.52377,32.4325 -7.73635,1.9657 -29.16545,3.3692 -34.66098,2.2701 z"
       id="path3008"
       inkscape:connector-curvature="0" />
    <path
       style="fill:#f6f7eb;fill-opacity:1;stroke:none"
       d="m -557.24688,1169.9329 c -2.2492,-1.8213 -2.43176,-2.6651 -2.43176,-11.239 0,-8.4461 0.20585,-9.4366 2.31637,-11.1456 4.51719,-3.6578 18.45954,-3.7946 22.03788,-0.2163 1.29695,1.297 1.54279,2.9852 1.14903,7.8906 -0.79645,9.922 -5.37966,14.5109 -16.00046,16.0201 -3.74738,0.5326 -5.10682,0.2807 -7.07106,-1.3098 z"
       id="path3010"
       inkscape:connector-curvature="0" />
    <path
       style="fill:#f6f7eb;fill-opacity:1;stroke:none"
       d="m -499.49225,1170.0581 c -4.06388,-3.3231 -4.51868,-18.1319 -0.68689,-22.3659 0.98706,-1.0907 3.4588,-2.2497 5.49276,-2.5756 9.46511,-1.5165 13.63881,3.2666 13.05571,14.9618 -0.30464,6.1102 -0.68024,7.2278 -3.14038,9.3439 -3.50674,3.0164 -11.39345,3.357 -14.7212,0.6358 z"
       id="path3012"
       inkscape:connector-curvature="0" />
    <path
       style="fill:#f6f7eb;fill-opacity:1;stroke:none"
       d="m -417.75221,1266.7211 0,-88.0883 36.11295,0.562 c 37.45304,0.5829 49.24069,1.6285 65.64021,5.8225 14.38932,3.6799 25.54766,10.3179 29.19266,17.3666 4.36488,8.4407 6.16294,21.2456 4.49388,32.003 -1.32339,8.5295 -3.5046,13.2198 -9.21723,19.8202 -5.72593,6.6158 -5.61998,6.9764 6.16375,20.9754 19.22803,22.8428 15.0472,53.9281 -9.52966,70.8548 -3.03712,2.0918 -8.62567,4.7437 -12.41899,5.8933 -6.50324,1.9707 -9.85211,2.1125 -58.66725,2.4844 l -51.77032,0.3944 0,-88.0883 z"
       id="path3014"
       inkscape:connector-curvature="0" />
    <path
       style="fill:#f6f7eb;fill-opacity:1;stroke:none"
       d="m -246.02628,1266.7802 0,-87.8833 65.15488,0 65.1548,0 0,16.6676 0,16.6675 -45.4569,0 -45.4568,0 0,17.6776 0,17.6777 42.4264,0 42.4264,0 0,16.6675 0,16.6675 -42.4264,0 -42.4264,0 0,20.2031 0,20.203 48.4873,0 48.4873,0 0,16.6676 0,16.6675 -68.1853,0 -68.18528,0 0,-87.8833 z"
       id="path3016"
       inkscape:connector-curvature="0" />
    <path
       style="fill:#f6f7eb;fill-opacity:1;stroke:none"
       d="m -86.4222,1266.2751 0,-88.3883 6.3735,0 c 3.5054,0 19.5289,0.6744 35.6079,1.4986 69.678,3.5717 73.2549,4.2902 84.9613,17.0657 10.0943,11.0161 14.4454,22.0348 14.4667,36.6351 0.027,18.6502 -9.1366,34.0186 -24.8538,41.682 -3.5952,1.753 -6.804,3.8838 -7.1307,4.7351 -0.9096,2.3703 1.0083,5.6964 9.136,15.8438 17.4276,21.7583 36.5556,52.9231 34.512,56.2296 -1.1566,1.8714 -12.0659,3.2488 -23.0817,2.9142 -17.7059,-0.5377 -19.8359,-2.137 -40.2476,-30.2182 -19.3441,-26.6124 -28.9584,-35.7554 -38.8273,-36.9243 -10.4365,-1.236 -11.5203,2.5914 -11.5203,40.6839 l 0,26.6312 -19.698,0 -19.698,0 0,-88.3884 z"
       id="path3018"
       inkscape:connector-curvature="0" />
    <g
       id="g3812"
       transform="translate(-1.367852,-0.43825685)">
      <path
         style="fill:#f6f7eb;fill-opacity:1;stroke:none"
         d="m -258.20546,1064.7758 c -40.75259,-8.1507 -49.30318,-16.564 -54.08661,-53.2182 -1.70621,-13.07431 -3.4154,-62.60651 -3.46273,-100.34961 l -0.0294,-23.4058 2.77792,-0.538 c 1.52786,-0.2959 8.68731,-1.0307 15.9099,-1.6329 7.2226,-0.6022 14.15477,-1.314 15.40483,-1.5818 l 2.27284,-0.4869 0.009,40.1728 c 0.0124,57.424 2.19119,78.45791 9.66743,93.32681 4.54473,9.0386 11.2129,12.4782 24.16404,12.4641 9.34403,-0.01 18.195,-2.3595 22.48344,-5.9679 6.25793,-5.2657 7.21085,-16.8212 7.27233,-88.18701 l 0.0437,-50.7602 19.2922,0 19.29221,0 -0.47954,59.8516 c -0.49865,62.23811 -1.06901,71.37071 -5.34652,85.61041 -5.71823,19.0358 -14.05309,25.7065 -40.52377,32.4325 -7.73635,1.9657 -29.16545,3.3692 -34.66098,2.2701 z"
         id="path3806"
         inkscape:connector-curvature="0" />
      <path
         style="fill:#f6f7eb;fill-opacity:1;stroke:none"
         d="m -281.53259,875.64719 c -2.2492,-1.8213 -2.43176,-2.6651 -2.43176,-11.239 0,-8.4461 0.20585,-9.4366 2.31637,-11.1456 4.51719,-3.6578 18.45954,-3.7946 22.03788,-0.2163 1.29695,1.297 1.54279,2.9852 1.14903,7.8906 -0.79645,9.922 -5.37966,14.5109 -16.00046,16.0201 -3.74738,0.5326 -5.10682,0.2807 -7.07106,-1.3098 z"
         id="path3808"
         inkscape:connector-curvature="0" />
      <path
         style="fill:#f6f7eb;fill-opacity:1;stroke:none"
         d="m -223.77796,875.77239 c -4.06388,-3.3231 -4.51868,-18.1319 -0.68689,-22.3659 0.98706,-1.0907 3.4588,-2.2497 5.49276,-2.5756 9.46511,-1.5165 13.63881,3.2666 13.05571,14.9618 -0.30464,6.1102 -0.68024,7.2278 -3.14038,9.3439 -3.50674,3.0164 -11.39345,3.357 -14.7212,0.6358 z"
         id="path3810"
         inkscape:connector-curvature="0" />
    </g>
    <rect
       style="fill:none;stroke:#000000;stroke-opacity:1;opacity:0"
       id="rect3817"
       width="252.85715"
       height="252.85715"
       x="-374.28571"
       y="830.93359"
       inkscape:export-filename="C:\Users\Andrew\Google Drive\CPP\Third Year\Winter 2018\CS 480\CS480-PythonWithJS\static\images\favicon.png"
       inkscape:export-xdpi="22.691124"
       inkscape:export-ydpi="22.691124" />
    <rect
       style="fill:none;stroke:#000000;stroke-width:2.99299407;stroke-linecap:round;stroke-linejoin:miter;stroke-miterlimit:4;stroke-opacity:1;stroke-dasharray:none;stroke-dashoffset:0"
       id="rect3819"
       width="1212.5355"
       height="118.24986"
       x="-449.12494"
       y="1566.0945" />
    <rect
       y="1720.3802"
       x="-449.12494"
       height="118.24986"
       width="1212.5355"
       id="rect3821"
       style="fill:none;stroke:#000000;stroke-width:2.99299407;stroke-linecap:round;stroke-linejoin:miter;stroke-miterlimit:4;stroke-opacity:1;stroke-dasharray:none;stroke-dashoffset:0" />
    <text
       xml:space="preserve"
       style="font-size:62.80913925px;font-style:normal;font-variant:normal;font-weight:normal;font-stretch:normal;line-height:125%;letter-spacing:0px;word-spacing:0px;fill:#000000;fill-opacity:1;stroke:none;font-family:Arial;-inkscape-font-specification:Arial"
       x="-1119.9402"
       y="1653.5007"
       id="text3825"
       sodipodi:linespacing="125%"><tspan
         sodipodi:role="line"
         id="tspan3827"
         x="-1119.9402"
         y="1653.5007">INGREDIENT NAME -</tspan></text>
    <text
       sodipodi:linespacing="125%"
       id="text3829"
       y="1802.0721"
       x="-851.03857"
       style="font-size:62.80913925px;font-style:normal;font-variant:normal;font-weight:normal;font-stretch:normal;line-height:125%;letter-spacing:0px;word-spacing:0px;fill:#000000;fill-opacity:1;stroke:none;font-family:Arial;-inkscape-font-specification:Arial"
       xml:space="preserve"><tspan
         y="1802.0721"
         x="-851.03857"
         id="tspan3831"
         sodipodi:role="line">QUANTITY -</tspan></text>
    <g
       id="g3845">
      <g
         transform="matrix(0.44525778,0,0,0.44525778,-670.44012,1130.7848)"
         id="g3837">
        <path
           style="fill:none;stroke:#000000;stroke-width:20.94097137;stroke-linecap:round;stroke-linejoin:miter;stroke-miterlimit:4;stroke-opacity:1;stroke-dasharray:none;stroke-dashoffset:0"
           d="m 931.42857,1703.7908 0,231.4285"
           id="path3833"
           inkscape:connector-curvature="0" />
        <path
           inkscape:connector-curvature="0"
           id="path3835"
           d="m 1047.1428,1819.5051 -231.42848,0"
           style="fill:none;stroke:#000000;stroke-width:20.94097137;stroke-linecap:round;stroke-linejoin:miter;stroke-miterlimit:4;stroke-opacity:1;stroke-dasharray:none;stroke-dashoffset:0" />
      </g>
      <text
         sodipodi:linespacing="125%"
         id="text3841"
         y="1980.7161"
         x="-165.24658"
         style="font-size:115.85391998px;font-style:normal;font-variant:normal;font-weight:normal;font-stretch:normal;line-height:125%;letter-spacing:0px;word-spacing:0px;fill:#000000;fill-opacity:1;stroke:none;font-family:Arial;-inkscape-font-specification:Arial"
         xml:space="preserve"><tspan
           y="1980.7161"
           x="-165.24658"
           id="tspan3843"
           sodipodi:role="line">ADD ANOTHER</tspan></text>
    </g>
    <g
       id="g3883"
       transform="translate(1920,-560)">
      <image
         transform="translate(-505.71429,340)"
         clip-path="url(#clipPath3865)"
         width="2198.8618"
         height="1569.1991"
         xlink:href="file:///C:/Users/Andrew/Google%20Drive/CPP/Third%20Year/Winter%202018/CS%20480/Project/images/ss+(2018-02-07+at+09.46.16).png"
         id="image3860"
         x="-634.92859"
         y="1116.806" />
      <rect
         transform="translate(0,308.2677)"
         y="1758.3802"
         x="-302.85715"
         height="874.28571"
         width="862.85712"
         id="rect3869"
         style="fill:#898282;fill-opacity:1;stroke:none" />
      <path
         transform="translate(0,308.2677)"
         inkscape:connector-curvature="0"
         id="path3871"
         d="m -265.71429,1815.5231 131.42858,0"
         style="fill:none;stroke:#000000;stroke-width:3;stroke-miterlimit:4;stroke-opacity:1;stroke-dasharray:none" />
      <path
         transform="translate(0,308.2677)"
         inkscape:connector-curvature="0"
         id="path3873"
         d="m -202.85714,1818.3802 9.85989,36.7976 55.85439,0"
         style="fill:none;stroke:#000000;stroke-width:3;stroke-linecap:round;stroke-linejoin:miter;stroke-miterlimit:4;stroke-opacity:1;stroke-dasharray:none;stroke-dashoffset:0" />
      <text
         sodipodi:linespacing="125%"
         id="text3875"
         y="2137.4678"
         x="-101.74891"
         style="font-size:44.69565201px;font-style:normal;font-variant:normal;font-weight:normal;font-stretch:normal;line-height:125%;letter-spacing:0px;word-spacing:0px;fill:#000000;fill-opacity:1;stroke:none;font-family:Arial;-inkscape-font-specification:Arial"
         xml:space="preserve"><tspan
           y="2137.4678"
           x="-101.74891"
           id="tspan3877"
           sodipodi:role="line">LEMON</tspan></text>
      <text
         xml:space="preserve"
         style="font-size:44.69565201px;font-style:normal;font-variant:normal;font-weight:normal;font-stretch:normal;line-height:125%;letter-spacing:0px;word-spacing:0px;fill:#000000;fill-opacity:1;stroke:none;font-family:Arial;-inkscape-font-specification:Arial"
         x="-101.74891"
         y="2188.8962"
         id="text3879"
         sodipodi:linespacing="125%"><tspan
           sodipodi:role="line"
           id="tspan3881"
           x="-101.74891"
           y="2188.8962">4</tspan></text>
    </g>
  </g>
</svg>
